<svg width="14" height="13" viewBox="0 0 14 13" fill="none" xmlns="http://www.w3.org/2000/svg">
<path d="M7.96152 5.90808L11.9421 1.04753H1.67632L5.69885 5.90808C5.78265 6.03379 5.82455 6.15949 5.82455 6.28519V10.6429L7.79391 11.6067V6.24329C7.79391 6.11759 7.87771 5.99189 7.96152 5.90808ZM13.4925 0.879927L8.88335 6.4528V12.4447C8.88335 12.8637 8.46433 13.1151 8.12912 12.9475L5.07033 11.481C4.90272 11.3972 4.73512 11.2295 4.73512 10.9781V6.4528L0.125974 0.879927C-0.167335 0.544717 0.084073 0 0.544987 0H13.0735C13.5344 0 13.7858 0.502816 13.4925 0.879927Z" fill="#8B8D9B"/>
</svg>
