<svg width="16" height="14" viewBox="0 0 16 14" fill="none" xmlns="http://www.w3.org/2000/svg">
<path d="M8.00016 12C8.17216 12 8.33216 11.9115 8.42367 11.766C8.78967 11.184 12.0002 6.019 12.0002 4C12.0002 1.7945 10.2057 0 8.00016 0C5.79467 0 4.00016 1.7945 4.00016 4C4.00016 6.019 7.21066 11.184 7.57666 11.766C7.66816 11.9115 7.82817 12 8.00016 12ZM8.00016 1C9.65466 1 11.0002 2.3455 11.0002 4C11.0002 5.2825 9.11166 8.694 8.00016 10.5435C6.88867 8.694 5.00016 5.2825 5.00016 4C5.00016 2.3455 6.34566 1 8.00016 1ZM10.0002 4C10.0002 2.897 9.10316 2 8.00016 2C6.89716 2 6.00016 2.897 6.00016 4C6.00016 5.103 6.89716 6 8.00016 6C9.10316 6 10.0002 5.103 10.0002 4ZM7.00016 4C7.00016 3.4485 7.44867 3 8.00016 3C8.55167 3 9.00016 3.4485 9.00016 4C9.00016 4.5515 8.55167 5 8.00016 5C7.44867 5 7.00016 4.5515 7.00016 4ZM15.9377 13.742C15.8492 13.9015 15.6817 14 15.5002 14H0.500165C0.318165 14 0.151165 13.9015 0.0626651 13.742C-0.0253349 13.5835 -0.020335 13.389 0.075665 13.2345L2.57566 9.2345C2.66767 9.089 2.82767 9 3.00016 9H5.00016C5.27617 9 5.50016 9.2235 5.50016 9.5C5.50016 9.7765 5.27617 10 5.00016 10H3.27716L1.40217 13H14.5977L12.7227 10H11.0002C10.7237 10 10.5002 9.7765 10.5002 9.5C10.5002 9.2235 10.7237 9 11.0002 9H13.0002C13.1727 9 13.3327 9.089 13.4242 9.235L15.9242 13.235C16.0207 13.389 16.0257 13.5835 15.9377 13.742Z" fill="#8B8D9B"/>
</svg>
