<svg width="16" height="12" viewBox="0 0 16 12" fill="none" xmlns="http://www.w3.org/2000/svg">
<path d="M3.78556 1.00849C3.78556 0.839565 3.85267 0.677556 3.97212 0.558106C4.09157 0.438656 4.25358 0.37155 4.42251 0.37155H14.4459C14.6148 0.37155 14.7768 0.438656 14.8962 0.558106C15.0157 0.677556 15.0828 0.839565 15.0828 1.00849C15.0828 1.17742 15.0157 1.33943 14.8962 1.45888C14.7768 1.57833 14.6148 1.64544 14.4459 1.64544H4.42251C4.25358 1.64544 4.09157 1.57833 3.97212 1.45888C3.85267 1.33943 3.78556 1.17742 3.78556 1.00849ZM1.00849 0C0.809032 0 0.61405 0.0591472 0.448205 0.169962C0.282359 0.280776 0.153098 0.438281 0.0767673 0.622559C0.000436886 0.806837 -0.0195345 1.00961 0.0193784 1.20524C0.0582913 1.40087 0.154341 1.58056 0.295381 1.7216C0.436421 1.86264 0.616118 1.95869 0.811746 1.99761C1.00737 2.03652 1.21015 2.01655 1.39443 1.94022C1.5787 1.86389 1.73621 1.73463 1.84702 1.56878C1.95784 1.40294 2.01699 1.20795 2.01699 1.00849C2.01699 0.741024 1.91073 0.48451 1.72161 0.295381C1.53248 0.106252 1.27596 0 1.00849 0ZM14.4459 5.36306H4.42251C4.25358 5.36306 4.09157 5.43016 3.97212 5.54961C3.85267 5.66906 3.78556 5.83107 3.78556 6C3.78556 6.16893 3.85267 6.33094 3.97212 6.45039C4.09157 6.56984 4.25358 6.63694 4.42251 6.63694H14.4459C14.6148 6.63694 14.7768 6.56984 14.8962 6.45039C15.0157 6.33094 15.0828 6.16893 15.0828 6C15.0828 5.83107 15.0157 5.66906 14.8962 5.54961C14.7768 5.43016 14.6148 5.36306 14.4459 5.36306ZM1.00849 4.99151C0.809032 4.99151 0.61405 5.05065 0.448205 5.16147C0.282359 5.27228 0.153098 5.42979 0.0767673 5.61407C0.000436886 5.79834 -0.0195345 6.00112 0.0193784 6.19675C0.0582913 6.39237 0.154341 6.57207 0.295381 6.71311C0.436421 6.85415 0.616118 6.9502 0.811746 6.98911C1.00737 7.02803 1.21015 7.00806 1.39443 6.93173C1.5787 6.85539 1.73621 6.72613 1.84702 6.56029C1.95784 6.39444 2.01699 6.19946 2.01699 6C2.01699 5.73253 1.91073 5.47602 1.72161 5.28689C1.53248 5.09776 1.27596 4.99151 1.00849 4.99151ZM14.4459 10.3546H4.42251C4.25358 10.3546 4.09157 10.4217 3.97212 10.5411C3.85267 10.6606 3.78556 10.8226 3.78556 10.9915C3.78556 11.1604 3.85267 11.3224 3.97212 11.4419C4.09157 11.5613 4.25358 11.6284 4.42251 11.6284H14.4459C14.6148 11.6284 14.7768 11.5613 14.8962 11.4419C15.0157 11.3224 15.0828 11.1604 15.0828 10.9915C15.0828 10.8226 15.0157 10.6606 14.8962 10.5411C14.7768 10.4217 14.6148 10.3546 14.4459 10.3546ZM1.00849 9.98302C0.809032 9.98302 0.61405 10.0422 0.448205 10.153C0.282359 10.2638 0.153098 10.4213 0.0767673 10.6056C0.000436886 10.7899 -0.0195345 10.9926 0.0193784 11.1883C0.0582913 11.3839 0.154341 11.5636 0.295381 11.7046C0.436421 11.8457 0.616118 11.9417 0.811746 11.9806C1.00737 12.0195 1.21015 11.9996 1.39443 11.9232C1.5787 11.8469 1.73621 11.7176 1.84702 11.5518C1.95784 11.3859 2.01699 11.191 2.01699 10.9915C2.01699 10.724 1.91073 10.4675 1.72161 10.2784C1.53248 10.0893 1.27596 9.98302 1.00849 9.98302Z" fill="white"/>
</svg>
