<svg width="7" height="12" viewBox="0 0 7 12" fill="none" xmlns="http://www.w3.org/2000/svg">
<path d="M1.27785 0.122863L6.87975 5.72514C6.95987 5.80518 7 5.89726 7 6.00143C7 6.1056 6.95987 6.19785 6.87975 6.27794L1.27785 11.8797C1.1976 11.96 1.10552 12 1.00131 12C0.897137 12 0.804926 11.9599 0.724842 11.8797L0.123958 11.2788C0.0438318 11.1987 0.00378939 11.1065 0.00378938 11.0023C0.00378938 10.8981 0.0438318 10.8059 0.123958 10.7258L4.84825 6.00143L0.123662 1.27688C0.0435362 1.1968 0.00374699 1.10455 0.00374698 1.00055C0.00374698 0.896211 0.0437889 0.804 0.123662 0.723916L0.7248 0.122906C0.804884 0.0428222 0.897136 0.003032 1.00126 0.00303199C1.10552 0.00299003 1.19773 0.0427792 1.27785 0.122863Z" fill="white"/>
</svg>
